<svg
  xmlns="http://www.w3.org/2000/svg"
  width="48"
  height="48"
  viewBox="0 0 48 48"
  fill="none"
  stroke="#000"
  stroke-width="2"
  stroke-linecap="round"
  stroke-linejoin="round"
>
  <!-- Refresh loop: bigger + further up/left -->
  <g transform="translate(0 0) scale(2)" stroke-width="1">
    <path d="M3 12a9 9 0 0 1 9-9 9.75 9.75 0 0 1 6.74 2.74L21 8"/>
    <path d="M21 3v5h-5"/>
    <path d="M21 12a9 9 0 0 1-9 9 9.75 9.75 0 0 1-6.74-2.74L3 16"/>
    <path d="M8 16H3v5"/>
  </g>

  <!-- Square stack: unchanged -->
  <g transform="translate(12 12)" stroke-width="2.5">
    <path d="M4 10c-1.1 0-2-.9-2-2V4c0-1.1.9-2 2-2h4c1.1 0 2 .9 2 2"/>
    <path d="M10 16c-1.1 0-2-.9-2-2v-4c0-1.1.9-2 2-2h4c1.1 0 2 .9 2 2"/>
    <rect x="14" y="14" width="8" height="8" rx="2"/>
  </g>
</svg>
